<?xml version="1.0" encoding="UTF-8"?>
<svg xmlns="http://www.w3.org/2000/svg" xmlns:xlink="http://www.w3.org/1999/xlink" width="2435.05" height="3307.69" viewBox="0 0 2435.05 3307.69">
<defs>
<clipPath id="clip-0">
<path clip-rule="nonzero" d="M 658 1039 L 1522 1039 L 1522 1815 L 658 1815 Z M 658 1039 "/>
</clipPath>
<clipPath id="clip-1">
<path clip-rule="evenodd" d="M 777.246094 1814.949219 L 1402.640625 1814.949219 C 1468.558594 1812.949219 1521.570312 1758.691406 1521.570312 1692.320312 L 1521.570312 1487.640625 L 1521.539062 1486.078125 L 1521.539062 1165.078125 L 1521.570312 1163.53125 L 1521.570312 1039.058594 L 658.328125 1039.058594 L 658.328125 1692.320312 C 658.328125 1758.691406 711.332031 1812.949219 777.246094 1814.949219 "/>
</clipPath>
<linearGradient id="linear-pattern-0" gradientUnits="userSpaceOnUse" x1="0.000000000000000111" y1="0" x2="1.000005" y2="0" gradientTransform="matrix(863.237, 0, 0, 863.237, 658.329, 1427)">
<stop offset="0" stop-color="rgb(97.253418%, 58.430481%, 11.372375%)" stop-opacity="1"/>
<stop offset="0.015625" stop-color="rgb(97.235107%, 58.270264%, 11.387634%)" stop-opacity="1"/>
<stop offset="0.03125" stop-color="rgb(97.198486%, 57.951355%, 11.418152%)" stop-opacity="1"/>
<stop offset="0.046875" stop-color="rgb(97.161865%, 57.633972%, 11.448669%)" stop-opacity="1"/>
<stop offset="0.0625" stop-color="rgb(97.125244%, 57.315063%, 11.479187%)" stop-opacity="1"/>
<stop offset="0.078125" stop-color="rgb(97.088623%, 56.996155%, 11.509705%)" stop-opacity="1"/>
<stop offset="0.09375" stop-color="rgb(97.052002%, 56.677246%, 11.540222%)" stop-opacity="1"/>
<stop offset="0.109375" stop-color="rgb(97.015381%, 56.358337%, 11.57074%)" stop-opacity="1"/>
<stop offset="0.125" stop-color="rgb(96.97876%, 56.040955%, 11.601257%)" stop-opacity="1"/>
<stop offset="0.140625" stop-color="rgb(96.942139%, 55.722046%, 11.631775%)" stop-opacity="1"/>
<stop offset="0.15625" stop-color="rgb(96.905518%, 55.403137%, 11.662292%)" stop-opacity="1"/>
<stop offset="0.171875" stop-color="rgb(96.867371%, 55.084229%, 11.69281%)" stop-opacity="1"/>
<stop offset="0.1875" stop-color="rgb(96.83075%, 54.76532%, 11.723328%)" stop-opacity="1"/>
<stop offset="0.203125" stop-color="rgb(96.794128%, 54.446411%, 11.755371%)" stop-opacity="1"/>
<stop offset="0.21875" stop-color="rgb(96.757507%, 54.129028%, 11.785889%)" stop-opacity="1"/>
<stop offset="0.234375" stop-color="rgb(96.720886%, 53.81012%, 11.816406%)" stop-opacity="1"/>
<stop offset="0.25" stop-color="rgb(96.684265%, 53.491211%, 11.846924%)" stop-opacity="1"/>
<stop offset="0.265625" stop-color="rgb(96.647644%, 53.172302%, 11.877441%)" stop-opacity="1"/>
<stop offset="0.28125" stop-color="rgb(96.611023%, 52.853394%, 11.907959%)" stop-opacity="1"/>
<stop offset="0.296875" stop-color="rgb(96.574402%, 52.536011%, 11.938477%)" stop-opacity="1"/>
<stop offset="0.3125" stop-color="rgb(96.537781%, 52.217102%, 11.968994%)" stop-opacity="1"/>
<stop offset="0.328125" stop-color="rgb(96.50116%, 51.898193%, 11.999512%)" stop-opacity="1"/>
<stop offset="0.34375" stop-color="rgb(96.463013%, 51.579285%, 12.030029%)" stop-opacity="1"/>
<stop offset="0.359375" stop-color="rgb(96.426392%, 51.260376%, 12.060547%)" stop-opacity="1"/>
<stop offset="0.375" stop-color="rgb(96.389771%, 50.941467%, 12.091064%)" stop-opacity="1"/>
<stop offset="0.390625" stop-color="rgb(96.353149%, 50.624084%, 12.121582%)" stop-opacity="1"/>
<stop offset="0.40625" stop-color="rgb(96.316528%, 50.305176%, 12.153625%)" stop-opacity="1"/>
<stop offset="0.421875" stop-color="rgb(96.279907%, 49.986267%, 12.184143%)" stop-opacity="1"/>
<stop offset="0.4375" stop-color="rgb(96.243286%, 49.667358%, 12.214661%)" stop-opacity="1"/>
<stop offset="0.453125" stop-color="rgb(96.206665%, 49.34845%, 12.245178%)" stop-opacity="1"/>
<stop offset="0.46875" stop-color="rgb(96.170044%, 49.031067%, 12.275696%)" stop-opacity="1"/>
<stop offset="0.484375" stop-color="rgb(96.133423%, 48.712158%, 12.306213%)" stop-opacity="1"/>
<stop offset="0.5" stop-color="rgb(96.095276%, 48.39325%, 12.336731%)" stop-opacity="1"/>
<stop offset="0.515625" stop-color="rgb(96.058655%, 48.074341%, 12.367249%)" stop-opacity="1"/>
<stop offset="0.53125" stop-color="rgb(96.022034%, 47.755432%, 12.397766%)" stop-opacity="1"/>
<stop offset="0.546875" stop-color="rgb(95.985413%, 47.438049%, 12.428284%)" stop-opacity="1"/>
<stop offset="0.5625" stop-color="rgb(95.948792%, 47.119141%, 12.458801%)" stop-opacity="1"/>
<stop offset="0.578125" stop-color="rgb(95.91217%, 46.800232%, 12.489319%)" stop-opacity="1"/>
<stop offset="0.59375" stop-color="rgb(95.875549%, 46.481323%, 12.519836%)" stop-opacity="1"/>
<stop offset="0.609375" stop-color="rgb(95.838928%, 46.162415%, 12.55188%)" stop-opacity="1"/>
<stop offset="0.625" stop-color="rgb(95.802307%, 45.843506%, 12.582397%)" stop-opacity="1"/>
<stop offset="0.640625" stop-color="rgb(95.765686%, 45.526123%, 12.612915%)" stop-opacity="1"/>
<stop offset="0.65625" stop-color="rgb(95.729065%, 45.207214%, 12.643433%)" stop-opacity="1"/>
<stop offset="0.671875" stop-color="rgb(95.690918%, 44.888306%, 12.67395%)" stop-opacity="1"/>
<stop offset="0.6875" stop-color="rgb(95.654297%, 44.569397%, 12.704468%)" stop-opacity="1"/>
<stop offset="0.703125" stop-color="rgb(95.617676%, 44.250488%, 12.734985%)" stop-opacity="1"/>
<stop offset="0.71875" stop-color="rgb(95.581055%, 43.933105%, 12.765503%)" stop-opacity="1"/>
<stop offset="0.734375" stop-color="rgb(95.544434%, 43.614197%, 12.796021%)" stop-opacity="1"/>
<stop offset="0.75" stop-color="rgb(95.507812%, 43.295288%, 12.826538%)" stop-opacity="1"/>
<stop offset="0.765625" stop-color="rgb(95.471191%, 42.976379%, 12.857056%)" stop-opacity="1"/>
<stop offset="0.78125" stop-color="rgb(95.43457%, 42.657471%, 12.887573%)" stop-opacity="1"/>
<stop offset="0.796875" stop-color="rgb(95.397949%, 42.338562%, 12.919617%)" stop-opacity="1"/>
<stop offset="0.8125" stop-color="rgb(95.361328%, 42.021179%, 12.950134%)" stop-opacity="1"/>
<stop offset="0.828125" stop-color="rgb(95.323181%, 41.702271%, 12.980652%)" stop-opacity="1"/>
<stop offset="0.84375" stop-color="rgb(95.28656%, 41.383362%, 13.011169%)" stop-opacity="1"/>
<stop offset="0.859375" stop-color="rgb(95.249939%, 41.064453%, 13.041687%)" stop-opacity="1"/>
<stop offset="0.875" stop-color="rgb(95.213318%, 40.745544%, 13.072205%)" stop-opacity="1"/>
<stop offset="0.890625" stop-color="rgb(95.176697%, 40.428162%, 13.102722%)" stop-opacity="1"/>
<stop offset="0.90625" stop-color="rgb(95.140076%, 40.109253%, 13.13324%)" stop-opacity="1"/>
<stop offset="0.921875" stop-color="rgb(95.103455%, 39.790344%, 13.163757%)" stop-opacity="1"/>
<stop offset="0.9375" stop-color="rgb(95.066833%, 39.471436%, 13.194275%)" stop-opacity="1"/>
<stop offset="0.953125" stop-color="rgb(95.030212%, 39.152527%, 13.224792%)" stop-opacity="1"/>
<stop offset="0.96875" stop-color="rgb(94.993591%, 38.833618%, 13.25531%)" stop-opacity="1"/>
<stop offset="0.984375" stop-color="rgb(94.95697%, 38.516235%, 13.285828%)" stop-opacity="1"/>
<stop offset="1" stop-color="rgb(94.918823%, 38.197327%, 13.317871%)" stop-opacity="1"/>
</linearGradient>
<clipPath id="clip-2">
<path clip-rule="nonzero" d="M 90 624 L 2345 624 L 2345 3218 L 90 3218 Z M 90 624 "/>
</clipPath>
<clipPath id="clip-3">
<path clip-rule="evenodd" d="M 90.496094 3217.261719 L 2344.621094 3217.261719 L 2344.621094 624.460938 L 1915.78125 624.460938 L 1914.421875 624.488281 L 90.496094 624.488281 Z M 451.082031 2802.660156 L 1983.988281 2802.660156 C 2008.96875 2802.660156 2029.21875 2822.910156 2029.21875 2847.890625 C 2029.21875 2872.871094 2008.96875 2893.121094 1983.988281 2893.121094 L 451.082031 2893.121094 C 426.117188 2893.121094 405.867188 2872.871094 405.867188 2847.890625 C 405.867188 2822.910156 426.117188 2802.660156 451.082031 2802.660156 Z M 451.082031 2528.660156 L 1983.988281 2528.660156 C 2008.96875 2528.660156 2029.21875 2548.910156 2029.21875 2573.890625 C 2029.21875 2598.871094 2008.96875 2619.121094 1983.988281 2619.121094 L 451.082031 2619.121094 C 426.117188 2619.121094 405.867188 2598.871094 405.867188 2573.890625 C 405.867188 2548.910156 426.117188 2528.660156 451.082031 2528.660156 Z M 451.082031 2254.660156 L 1983.988281 2254.660156 C 2008.96875 2254.660156 2029.21875 2274.910156 2029.21875 2299.890625 C 2029.21875 2324.871094 2008.96875 2345.121094 1983.988281 2345.121094 L 451.082031 2345.121094 C 426.117188 2345.121094 405.867188 2324.871094 405.867188 2299.890625 C 405.867188 2274.910156 426.117188 2254.660156 451.082031 2254.660156 Z M 1867.21875 1358.5 C 1867.21875 1453.789062 1789.679688 1531.308594 1694.390625 1531.308594 L 1611.96875 1531.308594 L 1611.96875 1692.320312 C 1611.96875 1737.941406 1597.550781 1780.25 1573.050781 1814.949219 L 1690.640625 1814.949219 C 1715.609375 1814.949219 1735.839844 1835.199219 1735.839844 1860.179688 L 1735.839844 1937.691406 C 1735.859375 2005.429688 1680.808594 2060.449219 1613.128906 2060.449219 L 566.703125 2060.449219 C 499.027344 2060.449219 443.964844 2005.398438 443.964844 1937.691406 L 443.964844 1860.179688 C 443.964844 1835.199219 464.203125 1814.949219 489.179688 1814.949219 L 606.769531 1814.949219 C 582.277344 1780.25 567.859375 1737.941406 567.859375 1692.320312 L 567.859375 993.839844 C 567.859375 968.859375 588.109375 948.609375 613.085938 948.609375 L 1566.738281 948.609375 C 1591.71875 948.609375 1611.96875 968.859375 1611.96875 993.839844 L 1611.96875 1119.859375 L 1694.390625 1119.859375 C 1789.679688 1119.859375 1867.21875 1197.398438 1867.21875 1292.679688 L 1867.21875 1358.5 "/>
</clipPath>
<linearGradient id="linear-pattern-1" gradientUnits="userSpaceOnUse" x1="-0.0000000887264" y1="0" x2="1.000001" y2="0" gradientTransform="matrix(2254.12, 0, 0, 2254.12, 90.4982, 1920.86)">
<stop offset="0" stop-color="rgb(87.841797%, 66.273499%, 38.430786%)" stop-opacity="1"/>
<stop offset="0.03125" stop-color="rgb(87.939453%, 66.413879%, 38.55896%)" stop-opacity="1"/>
<stop offset="0.0625" stop-color="rgb(88.136292%, 66.696167%, 38.816833%)" stop-opacity="1"/>
<stop offset="0.09375" stop-color="rgb(88.331604%, 66.978455%, 39.073181%)" stop-opacity="1"/>
<stop offset="0.125" stop-color="rgb(88.528442%, 67.259216%, 39.331055%)" stop-opacity="1"/>
<stop offset="0.15625" stop-color="rgb(88.723755%, 67.541504%, 39.588928%)" stop-opacity="1"/>
<stop offset="0.1875" stop-color="rgb(88.920593%, 67.823792%, 39.845276%)" stop-opacity="1"/>
<stop offset="0.21875" stop-color="rgb(89.115906%, 68.104553%, 40.103149%)" stop-opacity="1"/>
<stop offset="0.25" stop-color="rgb(89.312744%, 68.386841%, 40.361023%)" stop-opacity="1"/>
<stop offset="0.28125" stop-color="rgb(89.508057%, 68.669128%, 40.617371%)" stop-opacity="1"/>
<stop offset="0.3125" stop-color="rgb(89.704895%, 68.951416%, 40.875244%)" stop-opacity="1"/>
<stop offset="0.34375" stop-color="rgb(89.900208%, 69.232178%, 41.131592%)" stop-opacity="1"/>
<stop offset="0.375" stop-color="rgb(90.097046%, 69.514465%, 41.389465%)" stop-opacity="1"/>
<stop offset="0.40625" stop-color="rgb(90.292358%, 69.796753%, 41.647339%)" stop-opacity="1"/>
<stop offset="0.4375" stop-color="rgb(90.489197%, 70.079041%, 41.903687%)" stop-opacity="1"/>
<stop offset="0.46875" stop-color="rgb(90.684509%, 70.359802%, 42.16156%)" stop-opacity="1"/>
<stop offset="0.5" stop-color="rgb(90.881348%, 70.64209%, 42.419434%)" stop-opacity="1"/>
<stop offset="0.53125" stop-color="rgb(91.07666%, 70.924377%, 42.675781%)" stop-opacity="1"/>
<stop offset="0.5625" stop-color="rgb(91.273499%, 71.205139%, 42.933655%)" stop-opacity="1"/>
<stop offset="0.59375" stop-color="rgb(91.468811%, 71.487427%, 43.191528%)" stop-opacity="1"/>
<stop offset="0.625" stop-color="rgb(91.665649%, 71.769714%, 43.447876%)" stop-opacity="1"/>
<stop offset="0.65625" stop-color="rgb(91.860962%, 72.052002%, 43.70575%)" stop-opacity="1"/>
<stop offset="0.6875" stop-color="rgb(92.0578%, 72.332764%, 43.963623%)" stop-opacity="1"/>
<stop offset="0.71875" stop-color="rgb(92.253113%, 72.615051%, 44.219971%)" stop-opacity="1"/>
<stop offset="0.75" stop-color="rgb(92.449951%, 72.897339%, 44.477844%)" stop-opacity="1"/>
<stop offset="0.78125" stop-color="rgb(92.645264%, 73.178101%, 44.735718%)" stop-opacity="1"/>
<stop offset="0.8125" stop-color="rgb(92.842102%, 73.460388%, 44.992065%)" stop-opacity="1"/>
<stop offset="0.84375" stop-color="rgb(93.037415%, 73.742676%, 45.249939%)" stop-opacity="1"/>
<stop offset="0.875" stop-color="rgb(93.234253%, 74.024963%, 45.507812%)" stop-opacity="1"/>
<stop offset="0.90625" stop-color="rgb(93.429565%, 74.305725%, 45.76416%)" stop-opacity="1"/>
<stop offset="0.9375" stop-color="rgb(93.626404%, 74.588013%, 46.022034%)" stop-opacity="1"/>
<stop offset="0.96875" stop-color="rgb(93.821716%, 74.8703%, 46.279907%)" stop-opacity="1"/>
<stop offset="1" stop-color="rgb(94.018555%, 75.152588%, 46.536255%)" stop-opacity="1"/>
</linearGradient>
<clipPath id="clip-4">
<path clip-rule="nonzero" d="M 368 105 L 1870 105 L 1870 534 L 368 534 Z M 368 105 "/>
</clipPath>
<clipPath id="clip-5">
<path clip-rule="evenodd" d="M 368.242188 533.988281 L 1869.210938 533.988281 L 1869.210938 105.160156 Z M 368.242188 533.988281 "/>
</clipPath>
<linearGradient id="linear-pattern-2" gradientUnits="userSpaceOnUse" x1="0.25" y1="0" x2="0.749998" y2="0" gradientTransform="matrix(3001.95, 0, 0, 3001.95, -382.245, 319.57)">
<stop offset="0" stop-color="rgb(89.4104%, 68.528748%, 40.489197%)" stop-opacity="1"/>
<stop offset="0.0625" stop-color="rgb(89.508057%, 68.669128%, 40.617371%)" stop-opacity="1"/>
<stop offset="0.125" stop-color="rgb(89.704895%, 68.951416%, 40.875244%)" stop-opacity="1"/>
<stop offset="0.1875" stop-color="rgb(89.900208%, 69.232178%, 41.131592%)" stop-opacity="1"/>
<stop offset="0.25" stop-color="rgb(90.097046%, 69.514465%, 41.389465%)" stop-opacity="1"/>
<stop offset="0.3125" stop-color="rgb(90.292358%, 69.796753%, 41.647339%)" stop-opacity="1"/>
<stop offset="0.375" stop-color="rgb(90.489197%, 70.079041%, 41.903687%)" stop-opacity="1"/>
<stop offset="0.4375" stop-color="rgb(90.684509%, 70.359802%, 42.16156%)" stop-opacity="1"/>
<stop offset="0.5" stop-color="rgb(90.881348%, 70.64209%, 42.419434%)" stop-opacity="1"/>
<stop offset="0.5625" stop-color="rgb(91.07666%, 70.924377%, 42.675781%)" stop-opacity="1"/>
<stop offset="0.625" stop-color="rgb(91.273499%, 71.205139%, 42.933655%)" stop-opacity="1"/>
<stop offset="0.6875" stop-color="rgb(91.468811%, 71.487427%, 43.191528%)" stop-opacity="1"/>
<stop offset="0.75" stop-color="rgb(91.665649%, 71.769714%, 43.447876%)" stop-opacity="1"/>
<stop offset="0.8125" stop-color="rgb(91.860962%, 72.052002%, 43.70575%)" stop-opacity="1"/>
<stop offset="0.875" stop-color="rgb(92.0578%, 72.332764%, 43.963623%)" stop-opacity="1"/>
<stop offset="0.9375" stop-color="rgb(92.253113%, 72.615051%, 44.219971%)" stop-opacity="1"/>
<stop offset="1" stop-color="rgb(92.449951%, 72.897339%, 44.477844%)" stop-opacity="1"/>
</linearGradient>
</defs>
<path fill-rule="evenodd" fill="rgb(0%, 0%, 0%)" fill-opacity="1" d="M 534.433594 1905.410156 L 534.433594 1937.710938 C 534.433594 1955.550781 548.90625 1970.019531 566.742188 1970.019531 L 1613.148438 1970.019531 C 1630.988281 1970.019531 1645.460938 1955.550781 1645.460938 1937.710938 L 1645.460938 1905.410156 Z M 1983.988281 2893.121094 L 451.082031 2893.121094 C 426.117188 2893.121094 405.867188 2872.871094 405.867188 2847.890625 C 405.867188 2822.910156 426.117188 2802.660156 451.082031 2802.660156 L 1983.988281 2802.660156 C 2008.96875 2802.660156 2029.21875 2822.910156 2029.21875 2847.890625 C 2029.21875 2872.871094 2008.96875 2893.121094 1983.988281 2893.121094 Z M 1983.988281 2619.121094 L 451.082031 2619.121094 C 426.117188 2619.121094 405.867188 2598.871094 405.867188 2573.890625 C 405.867188 2548.910156 426.117188 2528.660156 451.082031 2528.660156 L 1983.988281 2528.660156 C 2008.96875 2528.660156 2029.21875 2548.910156 2029.21875 2573.890625 C 2029.21875 2598.871094 2008.96875 2619.121094 1983.988281 2619.121094 Z M 1983.988281 2345.121094 L 451.082031 2345.121094 C 426.117188 2345.121094 405.867188 2324.871094 405.867188 2299.890625 C 405.867188 2274.910156 426.117188 2254.660156 451.082031 2254.660156 L 1983.988281 2254.660156 C 2008.96875 2254.660156 2029.21875 2274.910156 2029.21875 2299.890625 C 2029.21875 2324.871094 2008.96875 2345.121094 1983.988281 2345.121094 Z M 1611.96875 1440.871094 L 1694.390625 1440.871094 C 1739.828125 1440.871094 1776.789062 1403.898438 1776.789062 1358.5 L 1776.789062 1292.679688 C 1776.789062 1247.25 1739.828125 1210.308594 1694.390625 1210.308594 L 1611.96875 1210.308594 Z M 777.246094 1814.949219 L 1402.640625 1814.949219 C 1468.558594 1812.949219 1521.570312 1758.691406 1521.570312 1692.320312 L 1521.570312 1487.640625 L 1521.539062 1486.078125 L 1521.539062 1165.078125 L 1521.570312 1163.53125 L 1521.570312 1039.058594 L 658.328125 1039.058594 L 658.328125 1692.320312 C 658.328125 1758.691406 711.332031 1812.949219 777.246094 1814.949219 Z M 90.496094 3217.261719 L 2344.621094 3217.261719 L 2344.621094 624.460938 L 1915.78125 624.460938 L 1914.421875 624.488281 L 90.496094 624.488281 Z M 368.242188 533.988281 L 1869.210938 105.160156 L 1869.210938 533.988281 Z M 2389.820312 3307.691406 C 2414.800781 3307.691406 2435.019531 3287.460938 2435.050781 3262.460938 L 2435.050781 579.199219 C 2435.050781 554.230469 2414.800781 533.988281 2389.820312 533.988281 L 1959.589844 533.988281 L 1959.589844 45.21875 C 1959.589844 31.03125 1952.96875 17.648438 1941.628906 9.121094 C 1930.308594 0.578125 1915.648438 -2.171875 1901.941406 1.75 L 34.75 535.21875 C 28.667969 536.671875 23.0625 539.351562 18.214844 542.96875 L 18.152344 543.019531 L 17.347656 543.628906 L 16.5625 544.269531 L 16.507812 544.308594 L 15.800781 544.898438 L 15.667969 545.019531 L 15.457031 545.199219 C 5.28125 554.109375 -0.628906 567.328125 0.0546875 581.359375 L 0.0546875 3262.460938 C 0.0546875 3287.441406 20.289062 3307.691406 45.269531 3307.691406 Z M 1613.128906 2060.449219 L 566.703125 2060.449219 C 499.027344 2060.449219 443.964844 2005.398438 443.964844 1937.691406 L 443.964844 1860.179688 C 443.964844 1835.199219 464.203125 1814.949219 489.179688 1814.949219 L 606.769531 1814.949219 C 582.277344 1780.25 567.859375 1737.941406 567.859375 1692.320312 L 567.859375 993.839844 C 567.859375 968.859375 588.109375 948.609375 613.085938 948.609375 L 1566.738281 948.609375 C 1591.71875 948.609375 1611.96875 968.859375 1611.96875 993.839844 L 1611.96875 1119.859375 L 1694.390625 1119.859375 C 1789.679688 1119.859375 1867.21875 1197.398438 1867.21875 1292.679688 L 1867.21875 1358.5 C 1867.21875 1453.789062 1789.679688 1531.308594 1694.390625 1531.308594 L 1611.96875 1531.308594 L 1611.96875 1692.320312 C 1611.96875 1737.941406 1597.550781 1780.25 1573.050781 1814.949219 L 1690.640625 1814.949219 C 1715.609375 1814.949219 1735.839844 1835.199219 1735.839844 1860.179688 L 1735.839844 1937.691406 C 1735.859375 2005.429688 1680.808594 2060.449219 1613.128906 2060.449219 "/>
<g clip-path="url(#clip-0)">
<g clip-path="url(#clip-1)">
<path fill-rule="nonzero" fill="url(#linear-pattern-0)" d="M 658.328125 1039.058594 L 658.328125 1814.949219 L 1521.570312 1814.949219 L 1521.570312 1039.058594 Z M 658.328125 1039.058594 "/>
</g>
</g>
<path fill-rule="evenodd" fill="rgb(89.84375%, 89.84375%, 89.84375%)" fill-opacity="1" d="M 1398.851562 1905.410156 L 534.433594 1905.410156 L 534.433594 1937.710938 C 534.433594 1955.550781 548.90625 1970.019531 566.742188 1970.019531 L 1613.148438 1970.019531 C 1630.988281 1970.019531 1645.460938 1955.550781 1645.460938 1937.710938 L 1645.460938 1905.410156 L 1398.851562 1905.410156 "/>
<path fill-rule="evenodd" fill="rgb(100%, 74.804688%, 42.747498%)" fill-opacity="1" d="M 1611.96875 1210.308594 L 1611.96875 1440.871094 L 1694.390625 1440.871094 C 1739.828125 1440.871094 1776.789062 1403.898438 1776.789062 1358.5 L 1776.789062 1292.679688 C 1776.789062 1247.25 1739.828125 1210.308594 1694.390625 1210.308594 L 1611.96875 1210.308594 "/>
<g clip-path="url(#clip-2)">
<g clip-path="url(#clip-3)">
<path fill-rule="nonzero" fill="url(#linear-pattern-1)" d="M 90.496094 624.460938 L 90.496094 3217.261719 L 2344.621094 3217.261719 L 2344.621094 624.460938 Z M 90.496094 624.460938 "/>
</g>
</g>
<g clip-path="url(#clip-4)">
<g clip-path="url(#clip-5)">
<path fill-rule="nonzero" fill="url(#linear-pattern-2)" d="M 368.242188 105.160156 L 368.242188 533.988281 L 1869.210938 533.988281 L 1869.210938 105.160156 Z M 368.242188 105.160156 "/>
</g>
</g>
</svg>
