<svg xmlns="http://www.w3.org/2000/svg" xmlns:xlink="http://www.w3.org/1999/xlink" version="1.1" width="256" height="256" viewBox="0 0 256 256" xml:space="preserve">
<g style="stroke: none; stroke-width: 0; stroke-dasharray: none; stroke-linecap: butt; stroke-linejoin: miter; stroke-miterlimit: 10; fill: none; fill-rule: nonzero; opacity: 1;" transform="translate(1.4065934065934016 1.4065934065934016) scale(2.81 2.81)">
	<path d="M 55.618 52.722 H 40 h -5.618 c -2.246 0 -4.067 1.821 -4.067 4.067 v 1.204 v 17.237 h 29.372 V 57.993 v -1.204 C 59.686 54.543 57.865 52.722 55.618 52.722 z" style="stroke: none; stroke-width: 1; stroke-dasharray: none; stroke-linecap: butt; stroke-linejoin: miter; stroke-miterlimit: 10; fill: rgb(248,218,127); fill-rule: nonzero; opacity: 1;" transform=" matrix(1 0 0 1 0 0) " stroke-linecap="round"/>
	<path d="M 84.063 28.91 c 0 3.701 -3.001 6.702 -6.702 6.702 s -6.702 -3.001 -6.702 -6.702 l -5.111 -8.298 h 9.159 L 84.063 28.91 z" style="stroke: none; stroke-width: 1; stroke-dasharray: none; stroke-linecap: butt; stroke-linejoin: miter; stroke-miterlimit: 10; fill: rgb(248,218,127); fill-rule: nonzero; opacity: 1;" transform=" matrix(1 0 0 1 0 0) " stroke-linecap="round"/>
	<path d="M 32.409 20.613 l -5.111 8.298 c 0 3.701 3.001 6.702 6.702 6.702 s 6.702 -3.001 6.702 -6.702 v -8.298 H 32.409" style="stroke: none; stroke-width: 1; stroke-dasharray: none; stroke-linecap: butt; stroke-linejoin: miter; stroke-miterlimit: 10; fill: rgb(248,218,127); fill-rule: nonzero; opacity: 1;" transform=" matrix(1 0 0 1 0 0) " stroke-linecap="round"/>
	<path d="M 57.591 20.613 l 5.111 8.298 c 0 3.701 -3.001 6.702 -6.702 6.702 s -6.702 -3.001 -6.702 -6.702 v -8.298 H 57.591" style="stroke: none; stroke-width: 1; stroke-dasharray: none; stroke-linecap: butt; stroke-linejoin: miter; stroke-miterlimit: 10; fill: rgb(248,218,127); fill-rule: nonzero; opacity: 1;" transform=" matrix(1 0 0 1 0 0) " stroke-linecap="round"/>
	<path d="M 5.937 28.91 c 0 3.701 3.001 6.702 6.702 6.702 s 6.702 -3.001 6.702 -6.702 l 5.111 -8.298 h -9.159 L 5.937 28.91 z" style="stroke: none; stroke-width: 1; stroke-dasharray: none; stroke-linecap: butt; stroke-linejoin: miter; stroke-miterlimit: 10; fill: rgb(248,218,127); fill-rule: nonzero; opacity: 1;" transform=" matrix(1 0 0 1 0 0) " stroke-linecap="round"/>
	<path d="M 9.863 76.23 c -0.552 0 -1 -0.447 -1 -1 V 40.212 c 0 -0.552 0.448 -1 1 -1 s 1 0.448 1 1 V 75.23 C 10.863 75.783 10.416 76.23 9.863 76.23 z" style="stroke: none; stroke-width: 1; stroke-dasharray: none; stroke-linecap: butt; stroke-linejoin: miter; stroke-miterlimit: 10; fill: rgb(0,0,0); fill-rule: nonzero; opacity: 1;" transform=" matrix(1 0 0 1 0 0) " stroke-linecap="round"/>
	<path d="M 80.137 76.23 c -0.553 0 -1 -0.447 -1 -1 v -35.02 c 0 -0.552 0.447 -1 1 -1 s 1 0.448 1 1 v 35.02 C 81.137 75.783 80.689 76.23 80.137 76.23 z" style="stroke: none; stroke-width: 1; stroke-dasharray: none; stroke-linecap: butt; stroke-linejoin: miter; stroke-miterlimit: 10; fill: rgb(0,0,0); fill-rule: nonzero; opacity: 1;" transform=" matrix(1 0 0 1 0 0) " stroke-linecap="round"/>
	<path d="M 89 85.819 H 25.314 c -0.552 0 -1 -0.447 -1 -1 s 0.448 -1 1 -1 H 88 v -4.902 c 0 -1.481 -1.205 -2.687 -2.687 -2.687 H 4.687 C 3.205 76.23 2 77.436 2 78.917 v 4.902 h 9.643 c 0.552 0 1 0.447 1 1 s -0.448 1 -1 1 H 1 c -0.552 0 -1 -0.447 -1 -1 v -5.902 c 0 -2.584 2.103 -4.687 4.687 -4.687 h 80.627 c 2.584 0 4.687 2.103 4.687 4.687 v 5.902 C 90 85.372 89.553 85.819 89 85.819 z" style="stroke: none; stroke-width: 1; stroke-dasharray: none; stroke-linecap: butt; stroke-linejoin: miter; stroke-miterlimit: 10; fill: rgb(0,0,0); fill-rule: nonzero; opacity: 1;" transform=" matrix(1 0 0 1 0 0) " stroke-linecap="round"/>
	<path d="M 56 41.422 c -6.617 0 -12 -5.383 -12 -12 V 15.803 c 0 -0.552 0.448 -1 1 -1 h 13.611 c 0.347 0 0.669 0.18 0.852 0.476 l 8.389 13.619 C 67.948 29.055 68 29.237 68 29.422 C 68 36.039 62.617 41.422 56 41.422 z M 46 16.803 v 12.619 c 0 5.514 4.486 10 10 10 c 5.422 0 9.849 -4.336 9.996 -9.723 l -7.943 -12.896 H 46 z" style="stroke: none; stroke-width: 1; stroke-dasharray: none; stroke-linecap: butt; stroke-linejoin: miter; stroke-miterlimit: 10; fill: rgb(0,0,0); fill-rule: nonzero; opacity: 1;" transform=" matrix(1 0 0 1 0 0) " stroke-linecap="round"/>
	<path d="M 78 41.422 c -6.521 0 -11.843 -5.227 -11.996 -11.711 L 57.76 16.328 c -0.189 -0.309 -0.198 -0.696 -0.021 -1.012 s 0.511 -0.512 0.873 -0.512 h 15.033 c 0.244 0 0.48 0.09 0.663 0.252 l 15.355 13.619 C 89.878 28.863 90 29.136 90 29.422 C 90 36.039 84.617 41.422 78 41.422 z M 60.401 16.803 l 7.45 12.094 C 67.948 29.055 68 29.237 68 29.422 c 0 5.514 4.486 10 10 10 c 5.366 0 9.759 -4.249 9.99 -9.559 l -14.726 -13.06 H 60.401 z" style="stroke: none; stroke-width: 1; stroke-dasharray: none; stroke-linecap: butt; stroke-linejoin: miter; stroke-miterlimit: 10; fill: rgb(0,0,0); fill-rule: nonzero; opacity: 1;" transform=" matrix(1 0 0 1 0 0) " stroke-linecap="round"/>
	<path d="M 34 41.422 c -6.617 0 -12 -5.383 -12 -12 c 0 -0.185 0.051 -0.367 0.148 -0.524 l 8.389 -13.619 c 0.182 -0.295 0.504 -0.476 0.852 -0.476 H 45 c 0.552 0 1 0.448 1 1 v 13.619 C 46 36.039 40.617 41.422 34 41.422 z M 24.004 29.699 c 0.147 5.386 4.575 9.723 9.996 9.723 c 5.514 0 10 -4.486 10 -10 V 16.803 H 31.948 L 24.004 29.699 z" style="stroke: none; stroke-width: 1; stroke-dasharray: none; stroke-linecap: butt; stroke-linejoin: miter; stroke-miterlimit: 10; fill: rgb(0,0,0); fill-rule: nonzero; opacity: 1;" transform=" matrix(1 0 0 1 0 0) " stroke-linecap="round"/>
	<path d="M 12 41.422 c -6.617 0 -12 -5.383 -12 -12 c 0 -0.286 0.123 -0.559 0.336 -0.748 l 15.356 -13.619 c 0.183 -0.163 0.419 -0.252 0.664 -0.252 h 15.033 c 0.362 0 0.696 0.196 0.873 0.512 s 0.168 0.704 -0.021 1.012 l -8.244 13.383 C 23.843 36.195 18.521 41.422 12 41.422 z M 2.01 29.863 c 0.231 5.31 4.624 9.559 9.99 9.559 c 5.514 0 10 -4.486 10 -10 c 0 -0.185 0.051 -0.367 0.148 -0.524 l 7.45 -12.094 H 16.735 L 2.01 29.863 z" style="stroke: none; stroke-width: 1; stroke-dasharray: none; stroke-linecap: butt; stroke-linejoin: miter; stroke-miterlimit: 10; fill: rgb(0,0,0); fill-rule: nonzero; opacity: 1;" transform=" matrix(1 0 0 1 0 0) " stroke-linecap="round"/>
	<path d="M 89 30.422 H 1 c -0.552 0 -1 -0.448 -1 -1 s 0.448 -1 1 -1 h 88 c 0.553 0 1 0.448 1 1 S 89.553 30.422 89 30.422 z" style="stroke: none; stroke-width: 1; stroke-dasharray: none; stroke-linecap: butt; stroke-linejoin: miter; stroke-miterlimit: 10; fill: rgb(0,0,0); fill-rule: nonzero; opacity: 1;" transform=" matrix(1 0 0 1 0 0) " stroke-linecap="round"/>
	<path d="M 73.806 16.803 h -57.45 c -0.552 0 -1 -0.448 -1 -1 V 8.845 c 0 -2.572 2.092 -4.664 4.664 -4.664 h 50.122 c 2.571 0 4.664 2.092 4.664 4.664 v 6.958 C 74.806 16.355 74.358 16.803 73.806 16.803 z M 17.356 14.803 h 55.45 V 8.845 c 0 -1.469 -1.195 -2.664 -2.664 -2.664 H 20.02 c -1.469 0 -2.664 1.195 -2.664 2.664 V 14.803 z" style="stroke: none; stroke-width: 1; stroke-dasharray: none; stroke-linecap: butt; stroke-linejoin: miter; stroke-miterlimit: 10; fill: rgb(0,0,0); fill-rule: nonzero; opacity: 1;" transform=" matrix(1 0 0 1 0 0) " stroke-linecap="round"/>
	<path d="M 64.686 76.23 c -0.553 0 -1 -0.447 -1 -1 V 51.789 c 0 -1.691 -1.376 -3.067 -3.067 -3.067 H 46 v 6.642 c 0 0.553 -0.448 1 -1 1 s -1 -0.447 -1 -1 v -7.642 c 0 -0.553 0.448 -1 1 -1 h 15.618 c 2.794 0 5.067 2.273 5.067 5.067 V 75.23 C 65.686 75.783 65.238 76.23 64.686 76.23 z" style="stroke: none; stroke-width: 1; stroke-dasharray: none; stroke-linecap: butt; stroke-linejoin: miter; stroke-miterlimit: 10; fill: rgb(0,0,0); fill-rule: nonzero; opacity: 1;" transform=" matrix(1 0 0 1 0 0) " stroke-linecap="round"/>
	<path d="M 45 76.23 c -0.552 0 -1 -0.447 -1 -1 V 63.686 c 0 -0.553 0.448 -1 1 -1 s 1 0.447 1 1 V 75.23 C 46 75.783 45.552 76.23 45 76.23 z" style="stroke: none; stroke-width: 1; stroke-dasharray: none; stroke-linecap: butt; stroke-linejoin: miter; stroke-miterlimit: 10; fill: rgb(0,0,0); fill-rule: nonzero; opacity: 1;" transform=" matrix(1 0 0 1 0 0) " stroke-linecap="round"/>
	<path d="M 50.387 66.918 c -0.553 0 -1 -0.447 -1 -1 V 63.74 c 0 -0.553 0.447 -1 1 -1 s 1 0.447 1 1 v 2.178 C 51.387 66.471 50.939 66.918 50.387 66.918 z" style="stroke: none; stroke-width: 1; stroke-dasharray: none; stroke-linecap: butt; stroke-linejoin: miter; stroke-miterlimit: 10; fill: rgb(0,0,0); fill-rule: nonzero; opacity: 1;" transform=" matrix(1 0 0 1 0 0) " stroke-linecap="round"/>
	<path d="M 25.314 76.23 c -0.552 0 -1 -0.447 -1 -1 V 51.789 c 0 -2.794 2.273 -5.067 5.067 -5.067 H 45 c 0.552 0 1 0.447 1 1 v 7.642 c 0 0.553 -0.448 1 -1 1 s -1 -0.447 -1 -1 v -6.642 H 29.381 c -1.691 0 -3.067 1.376 -3.067 3.067 V 75.23 C 26.314 75.783 25.866 76.23 25.314 76.23 z" style="stroke: none; stroke-width: 1; stroke-dasharray: none; stroke-linecap: butt; stroke-linejoin: miter; stroke-miterlimit: 10; fill: rgb(0,0,0); fill-rule: nonzero; opacity: 1;" transform=" matrix(1 0 0 1 0 0) " stroke-linecap="round"/>
	<path d="M 45 76.23 c -0.552 0 -1 -0.447 -1 -1 V 63.686 c 0 -0.553 0.448 -1 1 -1 s 1 0.447 1 1 V 75.23 C 46 75.783 45.552 76.23 45 76.23 z" style="stroke: none; stroke-width: 1; stroke-dasharray: none; stroke-linecap: butt; stroke-linejoin: miter; stroke-miterlimit: 10; fill: rgb(0,0,0); fill-rule: nonzero; opacity: 1;" transform=" matrix(1 0 0 1 0 0) " stroke-linecap="round"/>
	<path d="M 39.614 66.918 c -0.552 0 -1 -0.447 -1 -1 V 63.74 c 0 -0.553 0.448 -1 1 -1 s 1 0.447 1 1 v 2.178 C 40.614 66.471 40.166 66.918 39.614 66.918 z" style="stroke: none; stroke-width: 1; stroke-dasharray: none; stroke-linecap: butt; stroke-linejoin: miter; stroke-miterlimit: 10; fill: rgb(0,0,0); fill-rule: nonzero; opacity: 1;" transform=" matrix(1 0 0 1 0 0) " stroke-linecap="round"/>
</g>
</svg>