<svg xmlns="http://www.w3.org/2000/svg" xmlns:xlink="http://www.w3.org/1999/xlink" version="1.1" width="256" height="256" viewBox="0 0 256 256" xml:space="preserve">
<g style="stroke: none; stroke-width: 0; stroke-dasharray: none; stroke-linecap: butt; stroke-linejoin: miter; stroke-miterlimit: 10; fill: none; fill-rule: nonzero; opacity: 1;" transform="translate(1.4065934065934016 1.4065934065934016) scale(2.81 2.81)">
	<circle cx="45" cy="45" r="44" style="stroke: none; stroke-width: 1; stroke-dasharray: none; stroke-linecap: butt; stroke-linejoin: miter; stroke-miterlimit: 10; fill: rgb(220,244,219); fill-rule: nonzero; opacity: 1;" transform="  matrix(1 0 0 1 0 0) "/>
	<path d="M 45 90 C 20.187 90 0 69.813 0 45 C 0 20.187 20.187 0 45 0 c 24.813 0 45 20.187 45 45 C 90 69.813 69.813 90 45 90 z M 45 2 C 21.29 2 2 21.29 2 45 c 0 23.71 19.29 43 43 43 c 23.71 0 43 -19.29 43 -43 C 88 21.29 68.71 2 45 2 z" style="stroke: none; stroke-width: 1; stroke-dasharray: none; stroke-linecap: butt; stroke-linejoin: miter; stroke-miterlimit: 10; fill: rgb(0,0,0); fill-rule: nonzero; opacity: 1;" transform=" matrix(1 0 0 1 0 0) " stroke-linecap="round"/>
	<path d="M 11.631 47.498 H 8.154 c -0.552 0 -1 -0.447 -1 -1 v -5.329 c 0 -0.552 0.448 -1 1 -1 h 3.478 c 1.572 0 2.851 1.279 2.851 2.851 v 1.626 C 14.482 46.219 13.203 47.498 11.631 47.498 z M 9.154 45.498 h 2.478 c 0.469 0 0.851 -0.382 0.851 -0.851 v -1.626 c 0 -0.469 -0.381 -0.851 -0.851 -0.851 H 9.154 V 45.498 z" style="stroke: none; stroke-width: 1; stroke-dasharray: none; stroke-linecap: butt; stroke-linejoin: miter; stroke-miterlimit: 10; fill: rgb(0,0,0); fill-rule: nonzero; opacity: 1;" transform=" matrix(1 0 0 1 0 0) " stroke-linecap="round"/>
	<path d="M 8.154 51.67 c -0.552 0 -1 -0.447 -1 -1 v -4.172 c 0 -0.552 0.448 -1 1 -1 s 1 0.448 1 1 v 4.172 C 9.154 51.223 8.706 51.67 8.154 51.67 z" style="stroke: none; stroke-width: 1; stroke-dasharray: none; stroke-linecap: butt; stroke-linejoin: miter; stroke-miterlimit: 10; fill: rgb(0,0,0); fill-rule: nonzero; opacity: 1;" transform=" matrix(1 0 0 1 0 0) " stroke-linecap="round"/>
	<path d="M 20.413 46.92 h -3.27 c -0.552 0 -1 -0.448 -1 -1 v -4.75 c 0 -0.552 0.448 -1 1 -1 h 3.27 c 1.553 0 2.816 1.264 2.816 2.816 v 1.117 C 23.229 45.656 21.965 46.92 20.413 46.92 z M 18.143 44.919 h 2.27 c 0.45 0 0.816 -0.366 0.816 -0.816 v -1.117 c 0 -0.45 -0.366 -0.816 -0.816 -0.816 h -2.27 V 44.919 z" style="stroke: none; stroke-width: 1; stroke-dasharray: none; stroke-linecap: butt; stroke-linejoin: miter; stroke-miterlimit: 10; fill: rgb(0,0,0); fill-rule: nonzero; opacity: 1;" transform=" matrix(1 0 0 1 0 0) " stroke-linecap="round"/>
	<path d="M 22.229 51.67 c -0.552 0 -1 -0.447 -1 -1 v -2.935 c 0 -0.45 -0.366 -0.816 -0.816 -0.816 h -2.27 v 3.751 c 0 0.553 -0.448 1 -1 1 s -1 -0.447 -1 -1 v -4.75 c 0 -0.552 0.448 -1 1 -1 h 3.27 c 1.553 0 2.816 1.263 2.816 2.816 v 2.935 C 23.229 51.223 22.781 51.67 22.229 51.67 z" style="stroke: none; stroke-width: 1; stroke-dasharray: none; stroke-linecap: butt; stroke-linejoin: miter; stroke-miterlimit: 10; fill: rgb(0,0,0); fill-rule: nonzero; opacity: 1;" transform=" matrix(1 0 0 1 0 0) " stroke-linecap="round"/>
	<path d="M 31.232 51.67 h -4.806 c -0.552 0 -1 -0.447 -1 -1 v -9.5 c 0 -0.552 0.448 -1 1 -1 h 4.806 c 0.552 0 1 0.448 1 1 s -0.448 1 -1 1 h -3.806 v 7.5 h 3.806 c 0.552 0 1 0.447 1 1 S 31.784 51.67 31.232 51.67 z" style="stroke: none; stroke-width: 1; stroke-dasharray: none; stroke-linecap: butt; stroke-linejoin: miter; stroke-miterlimit: 10; fill: rgb(0,0,0); fill-rule: nonzero; opacity: 1;" transform=" matrix(1 0 0 1 0 0) " stroke-linecap="round"/>
	<path d="M 29.775 46.92 h -3.349 c -0.552 0 -1 -0.448 -1 -1 s 0.448 -1 1 -1 h 3.349 c 0.552 0 1 0.448 1 1 S 30.327 46.92 29.775 46.92 z" style="stroke: none; stroke-width: 1; stroke-dasharray: none; stroke-linecap: butt; stroke-linejoin: miter; stroke-miterlimit: 10; fill: rgb(0,0,0); fill-rule: nonzero; opacity: 1;" transform=" matrix(1 0 0 1 0 0) " stroke-linecap="round"/>
	<path d="M 42.631 51.67 h -1.8 c -1.681 0 -3.048 -1.368 -3.048 -3.049 v -5.403 c 0 -1.681 1.368 -3.048 3.048 -3.048 h 1.8 c 1.681 0 3.048 1.368 3.048 3.048 v 5.403 C 45.68 50.302 44.312 51.67 42.631 51.67 z M 40.832 42.169 c -0.578 0 -1.048 0.47 -1.048 1.048 v 5.403 c 0 0.578 0.47 1.049 1.048 1.049 h 1.8 c 0.578 0 1.048 -0.471 1.048 -1.049 v -5.403 c 0 -0.578 -0.47 -1.048 -1.048 -1.048 H 40.832 z" style="stroke: none; stroke-width: 1; stroke-dasharray: none; stroke-linecap: butt; stroke-linejoin: miter; stroke-miterlimit: 10; fill: rgb(0,0,0); fill-rule: nonzero; opacity: 1;" transform=" matrix(1 0 0 1 0 0) " stroke-linecap="round"/>
	<path d="M 51.53 46.92 H 48.26 c -0.553 0 -1 -0.448 -1 -1 v -4.75 c 0 -0.552 0.447 -1 1 -1 h 3.271 c 1.553 0 2.816 1.264 2.816 2.816 v 1.117 C 54.347 45.656 53.083 46.92 51.53 46.92 z M 49.26 44.919 h 2.271 c 0.45 0 0.816 -0.366 0.816 -0.816 v -1.117 c 0 -0.45 -0.366 -0.816 -0.816 -0.816 H 49.26 V 44.919 z" style="stroke: none; stroke-width: 1; stroke-dasharray: none; stroke-linecap: butt; stroke-linejoin: miter; stroke-miterlimit: 10; fill: rgb(0,0,0); fill-rule: nonzero; opacity: 1;" transform=" matrix(1 0 0 1 0 0) " stroke-linecap="round"/>
	<path d="M 53.347 51.67 c -0.553 0 -1 -0.447 -1 -1 v -2.935 c 0 -0.45 -0.366 -0.816 -0.816 -0.816 H 49.26 v 3.751 c 0 0.553 -0.447 1 -1 1 s -1 -0.447 -1 -1 v -4.75 c 0 -0.552 0.447 -1 1 -1 h 3.271 c 1.553 0 2.816 1.263 2.816 2.816 v 2.935 C 54.347 51.223 53.899 51.67 53.347 51.67 z" style="stroke: none; stroke-width: 1; stroke-dasharray: none; stroke-linecap: butt; stroke-linejoin: miter; stroke-miterlimit: 10; fill: rgb(0,0,0); fill-rule: nonzero; opacity: 1;" transform=" matrix(1 0 0 1 0 0) " stroke-linecap="round"/>
	<path d="M 61.295 51.67 h -3.848 c -0.553 0 -1 -0.447 -1 -1 v -9.5 c 0 -0.552 0.447 -1 1 -1 h 3.848 c 1.681 0 3.049 1.368 3.049 3.048 v 5.403 C 64.344 50.302 62.976 51.67 61.295 51.67 z M 58.447 49.67 h 2.848 c 0.578 0 1.049 -0.471 1.049 -1.049 v -5.403 c 0 -0.578 -0.471 -1.048 -1.049 -1.048 h -2.848 V 49.67 z" style="stroke: none; stroke-width: 1; stroke-dasharray: none; stroke-linecap: butt; stroke-linejoin: miter; stroke-miterlimit: 10; fill: rgb(0,0,0); fill-rule: nonzero; opacity: 1;" transform=" matrix(1 0 0 1 0 0) " stroke-linecap="round"/>
	<path d="M 72.442 51.67 h -4.805 c -0.553 0 -1 -0.447 -1 -1 v -9.5 c 0 -0.552 0.447 -1 1 -1 h 4.805 c 0.553 0 1 0.448 1 1 s -0.447 1 -1 1 h -3.805 v 7.5 h 3.805 c 0.553 0 1 0.447 1 1 S 72.995 51.67 72.442 51.67 z" style="stroke: none; stroke-width: 1; stroke-dasharray: none; stroke-linecap: butt; stroke-linejoin: miter; stroke-miterlimit: 10; fill: rgb(0,0,0); fill-rule: nonzero; opacity: 1;" transform=" matrix(1 0 0 1 0 0) " stroke-linecap="round"/>
	<path d="M 70.986 46.92 h -3.349 c -0.553 0 -1 -0.448 -1 -1 s 0.447 -1 1 -1 h 3.349 c 0.553 0 1 0.448 1 1 S 71.539 46.92 70.986 46.92 z" style="stroke: none; stroke-width: 1; stroke-dasharray: none; stroke-linecap: butt; stroke-linejoin: miter; stroke-miterlimit: 10; fill: rgb(0,0,0); fill-rule: nonzero; opacity: 1;" transform=" matrix(1 0 0 1 0 0) " stroke-linecap="round"/>
	<path d="M 80.03 46.92 H 76.76 c -0.553 0 -1 -0.448 -1 -1 v -4.75 c 0 -0.552 0.447 -1 1 -1 h 3.271 c 1.553 0 2.816 1.264 2.816 2.816 v 1.117 C 82.847 45.656 81.583 46.92 80.03 46.92 z M 77.76 44.919 h 2.271 c 0.45 0 0.816 -0.366 0.816 -0.816 v -1.117 c 0 -0.45 -0.366 -0.816 -0.816 -0.816 H 77.76 V 44.919 z" style="stroke: none; stroke-width: 1; stroke-dasharray: none; stroke-linecap: butt; stroke-linejoin: miter; stroke-miterlimit: 10; fill: rgb(0,0,0); fill-rule: nonzero; opacity: 1;" transform=" matrix(1 0 0 1 0 0) " stroke-linecap="round"/>
	<path d="M 81.847 51.67 c -0.553 0 -1 -0.447 -1 -1 v -2.935 c 0 -0.45 -0.366 -0.816 -0.816 -0.816 H 77.76 v 3.751 c 0 0.553 -0.447 1 -1 1 s -1 -0.447 -1 -1 v -4.75 c 0 -0.552 0.447 -1 1 -1 h 3.271 c 1.553 0 2.816 1.263 2.816 2.816 v 2.935 C 82.847 51.223 82.399 51.67 81.847 51.67 z" style="stroke: none; stroke-width: 1; stroke-dasharray: none; stroke-linecap: butt; stroke-linejoin: miter; stroke-miterlimit: 10; fill: rgb(0,0,0); fill-rule: nonzero; opacity: 1;" transform=" matrix(1 0 0 1 0 0) " stroke-linecap="round"/>
	<rect x="33.56" y="9.55" rx="0" ry="0" width="22.88" height="22.88" style="stroke: none; stroke-width: 1; stroke-dasharray: none; stroke-linecap: butt; stroke-linejoin: miter; stroke-miterlimit: 10; fill: rgb(234,194,126); fill-rule: nonzero; opacity: 1;" transform=" matrix(1 0 0 1 0 0) "/>
	<polygon points="47.65,23.41 45,21.15 42.35,23.41 42.35,9.55 47.65,9.55 " style="stroke: none; stroke-width: 1; stroke-dasharray: none; stroke-linecap: butt; stroke-linejoin: miter; stroke-miterlimit: 10; fill: rgb(253,188,75); fill-rule: nonzero; opacity: 1;" transform="  matrix(1 0 0 1 0 0) "/>
	<path d="M 56.44 33.434 H 33.559 c -0.552 0 -1 -0.448 -1 -1 V 9.553 c 0 -0.552 0.448 -1 1 -1 H 56.44 c 0.553 0 1 0.448 1 1 v 22.881 C 57.44 32.986 56.993 33.434 56.44 33.434 z M 34.559 31.434 H 55.44 V 10.553 H 34.559 V 31.434 z" style="stroke: none; stroke-width: 1; stroke-dasharray: none; stroke-linecap: butt; stroke-linejoin: miter; stroke-miterlimit: 10; fill: rgb(0,0,0); fill-rule: nonzero; opacity: 1;" transform=" matrix(1 0 0 1 0 0) " stroke-linecap="round"/>
	<path d="M 47.646 24.408 c -0.233 0 -0.464 -0.082 -0.648 -0.239 L 45 22.466 l -1.997 1.703 c -0.297 0.254 -0.713 0.312 -1.068 0.147 c -0.354 -0.163 -0.581 -0.518 -0.581 -0.908 V 9.553 c 0 -0.552 0.448 -1 1 -1 h 5.292 c 0.553 0 1 0.448 1 1 v 13.855 c 0 0.39 -0.227 0.745 -0.581 0.908 C 47.931 24.378 47.788 24.408 47.646 24.408 z M 43.354 10.553 v 10.689 l 0.997 -0.85 c 0.374 -0.319 0.924 -0.319 1.298 0 l 0.997 0.85 V 10.553 H 43.354 z" style="stroke: none; stroke-width: 1; stroke-dasharray: none; stroke-linecap: butt; stroke-linejoin: miter; stroke-miterlimit: 10; fill: rgb(0,0,0); fill-rule: nonzero; opacity: 1;" transform=" matrix(1 0 0 1 0 0) " stroke-linecap="round"/>
	<path d="M 73.165 35.649 c -0.407 0 -0.79 -0.251 -0.938 -0.656 c -1.498 -4.076 -3.952 -7.834 -7.097 -10.868 c -0.397 -0.383 -0.409 -1.017 -0.025 -1.414 s 1.017 -0.408 1.414 -0.025 c 3.36 3.242 5.983 7.259 7.585 11.618 c 0.19 0.518 -0.075 1.093 -0.594 1.283 C 73.396 35.629 73.279 35.649 73.165 35.649 z" style="stroke: none; stroke-width: 1; stroke-dasharray: none; stroke-linecap: butt; stroke-linejoin: miter; stroke-miterlimit: 10; fill: rgb(0,0,0); fill-rule: nonzero; opacity: 1;" transform=" matrix(1 0 0 1 0 0) " stroke-linecap="round"/>
	<path d="M 45 76 c -11.38 0 -21.826 -6.226 -27.261 -16.247 c -0.264 -0.485 -0.083 -1.093 0.402 -1.355 c 0.484 -0.263 1.092 -0.083 1.355 0.402 C 24.582 68.176 34.354 74 45 74 c 10.646 0 20.418 -5.824 25.503 -15.2 c 0.263 -0.485 0.87 -0.666 1.355 -0.402 c 0.485 0.263 0.666 0.87 0.402 1.355 C 66.826 69.774 56.381 76 45 76 z" style="stroke: none; stroke-width: 1; stroke-dasharray: none; stroke-linecap: butt; stroke-linejoin: miter; stroke-miterlimit: 10; fill: rgb(0,0,0); fill-rule: nonzero; opacity: 1;" transform=" matrix(1 0 0 1 0 0) " stroke-linecap="round"/>
</g>
</svg>